<?xml version="1.0" encoding="UTF-8" standalone="no"?>
<!DOCTYPE svg PUBLIC "-//W3C//DTD SVG 1.1//EN" "http://www.w3.org/Graphics/SVG/1.1/DTD/svg11.dtd">
<svg width="100%" height="100%" viewBox="0 0 620 680" version="1.1" xmlns="http://www.w3.org/2000/svg" xmlns:xlink="http://www.w3.org/1999/xlink" xml:space="preserve" xmlns:serif="http://www.serif.com/" style="fill-rule:evenodd;clip-rule:evenodd;stroke-linecap:round;stroke-linejoin:round;stroke-miterlimit:10;">
    <rect id="Artboard1" x="0" y="0" width="620" height="680" style="fill:none;"/>
    <g id="Artboard11" serif:id="Artboard1">
        <g transform="matrix(0,-1.29264,-1.29264,0,306.74,228.353)">
            <path d="M-193.889,-193.889C-200.143,-193.889 -205.212,-107.082 -205.212,0C-205.212,107.082 -200.143,193.889 -193.889,193.889C-187.635,193.889 -182.566,107.082 -182.566,0C-182.566,-107.082 -187.635,-193.889 -193.889,-193.889" style="fill:rgb(245,245,245);fill-rule:nonzero;"/>
        </g>
        <g transform="matrix(1.49052,0,0,1.49052,89.0645,355.095)">
            <path d="M0,-59.583L3.646,-59.583L13.799,0L10.152,0L0,-59.583Z" style="fill:rgb(26,46,53);fill-rule:nonzero;"/>
        </g>
        <g transform="matrix(1.49052,0,0,1.49052,109.241,355.095)">
            <path d="M0,-59.583L3.646,-59.583L13.799,0L10.153,0L0,-59.583Z" style="fill:rgb(26,46,53);fill-rule:nonzero;"/>
        </g>
        <g transform="matrix(1.49052,0,0,1.49052,129.418,355.095)">
            <path d="M0,-59.583L3.646,-59.583L13.799,0L10.153,0L0,-59.583Z" style="fill:rgb(26,46,53);fill-rule:nonzero;"/>
        </g>
        <g transform="matrix(1.49052,0,0,1.49052,-30.7287,-141.425)">
            <g opacity="0.4">
                <g transform="matrix(1,0,0,1,80.3701,333.119)">
                    <path d="M0,-59.583L3.646,-59.583L13.799,0L10.152,0L0,-59.583Z" style="fill:white;fill-rule:nonzero;"/>
                </g>
            </g>
        </g>
        <g transform="matrix(1.49052,0,0,1.49052,-30.7287,-141.425)">
            <g opacity="0.4">
                <g transform="matrix(1,0,0,1,93.9067,333.119)">
                    <path d="M0,-59.583L3.646,-59.583L13.799,0L10.153,0L0,-59.583Z" style="fill:white;fill-rule:nonzero;"/>
                </g>
            </g>
        </g>
        <g transform="matrix(1.49052,0,0,1.49052,-30.7287,-141.425)">
            <g opacity="0.4">
                <g transform="matrix(1,0,0,1,107.444,333.119)">
                    <path d="M0,-59.583L3.646,-59.583L13.799,0L10.153,0L0,-59.583Z" style="fill:white;fill-rule:nonzero;"/>
                </g>
            </g>
        </g>
        <g transform="matrix(1.49052,0,0,1.49052,135.514,477.777)">
            <path d="M0,-80.767L0.305,-67.593L1.692,0L6.27,0L7.648,-67.593L7.953,-80.767L0,-80.767Z" style="fill:rgb(26,46,53);fill-rule:nonzero;"/>
        </g>
        <g transform="matrix(1.49052,0,0,1.49052,-30.7287,-141.425)">
            <g opacity="0.4">
                <g transform="matrix(1,0,0,1,111.534,415.427)">
                    <path d="M0,-80.767L0.305,-67.593L1.692,0L6.27,0L7.648,-67.593L7.953,-80.767L0,-80.767Z" style="fill:white;fill-rule:nonzero;"/>
                </g>
            </g>
        </g>
        <g transform="matrix(1.49052,0,0,1.49052,-30.7287,-141.425)">
            <g opacity="0.2">
                <g transform="matrix(0.0225251,0.999746,0.999746,-0.0225251,122.187,337.301)">
                    <path d="M-2.88,-10.592L10.661,-10.592L10.826,-3.25L-2.701,-2.641L-2.88,-10.592Z" style="fill-rule:nonzero;"/>
                </g>
            </g>
        </g>
        <g transform="matrix(0.0790532,-1.48842,-1.48842,-0.0790532,165.586,429.56)">
            <path d="M-34.481,43.263L45.255,43.263L45.622,36.361L-34.204,38.049L-34.481,43.263Z" style="fill:rgb(26,46,53);fill-rule:nonzero;"/>
        </g>
        <g transform="matrix(1.49052,0,0,1.49052,-30.7287,-141.425)">
            <g opacity="0.4">
                <g transform="matrix(1,0,0,1,91.9106,335.507)">
                    <path d="M0,79.709L-5.225,79.709L-1.388,6.515L-1.007,0L5.905,0L5.372,6.515L0,79.709Z" style="fill:white;fill-rule:nonzero;"/>
                </g>
            </g>
        </g>
        <g transform="matrix(1.49052,0,0,1.49052,-30.7287,-141.425)">
            <g opacity="0.2">
                <g transform="matrix(-0.0784983,0.996914,0.996914,0.0784983,97.2572,342.792)">
                    <path d="M-7.307,-0.015L-0.517,-0.015L0.014,-6.754L-6.764,-6.907L-7.307,-0.015Z" style="fill-rule:nonzero;"/>
                </g>
            </g>
        </g>
        <g transform="matrix(-0.110514,-1.48642,-1.48642,0.110514,235.259,413.201)">
            <path d="M-40.078,42.415L39.765,42.415L39.253,35.522L-40.465,37.209L-40.078,42.415Z" style="fill:rgb(26,46,53);fill-rule:nonzero;"/>
        </g>
        <g transform="matrix(1.49052,0,0,1.49052,-30.7287,-141.425)">
            <g opacity="0.4">
                <g transform="matrix(1,0,0,1,139.114,335.507)">
                    <path d="M0,79.709L-5.372,6.515L-5.905,0L1.008,0L1.389,6.515L5.226,79.709L0,79.709Z" style="fill:white;fill-rule:nonzero;"/>
                </g>
            </g>
        </g>
        <g transform="matrix(1.49052,0,0,1.49052,-30.7287,-141.425)">
            <g opacity="0.2">
                <g transform="matrix(0.0784983,0.996914,0.996914,-0.0784983,139.943,334.99)">
                    <path d="M-0.014,-6.754L6.776,-6.754L7.307,-0.015L0.529,0.138L-0.014,-6.754Z" style="fill-rule:nonzero;"/>
                </g>
            </g>
        </g>
        <g transform="matrix(1.49052,0,0,1.49052,105.554,362.467)">
            <path d="M0,-9.891L48.159,-9.891C50.495,-9.891 52.389,-7.996 52.389,-5.661L52.389,0L-4.23,0L-4.23,-5.661C-4.23,-7.996 -2.336,-9.891 0,-9.891" style="fill:rgb(26,46,53);fill-rule:nonzero;"/>
        </g>
        <g transform="matrix(1.49052,0,0,1.49052,97.742,362.466)">
            <path d="M0,-4.945L58.641,-4.945C59.581,-4.945 60.343,-4.183 60.343,-3.244L60.343,-1.702C60.343,-0.762 59.581,0 58.641,0L0,0C-0.94,0 -1.702,-0.762 -1.702,-1.702L-1.702,-3.244C-1.702,-4.183 -0.94,-4.945 0,-4.945" style="fill:rgb(26,46,53);fill-rule:nonzero;"/>
        </g>
        <g transform="matrix(1.49052,0,0,1.49052,-30.7287,-141.425)">
            <g opacity="0.6">
                <g transform="matrix(1,0,0,1,86.1919,338.064)">
                    <path d="M0,-4.945L58.641,-4.945C59.581,-4.945 60.343,-4.183 60.343,-3.244L60.343,-1.702C60.343,-0.762 59.581,0 58.641,0L0,0C-0.94,0 -1.702,-0.762 -1.702,-1.702L-1.702,-3.244C-1.702,-4.183 -0.94,-4.945 0,-4.945" style="fill:white;fill-rule:nonzero;"/>
                </g>
            </g>
        </g>
        <g transform="matrix(1.49052,0,0,1.49052,98.4582,249.1)">
            <path d="M0,18.41C5.869,14.857 14.02,14.857 21.808,18.41C25.745,20.136 30.402,20.626 32.464,18.139C35.975,14.481 29.813,3.642 17.986,0.211C9.522,-2.216 1.144,-2.216 -6.01,0.211C-15.983,3.642 -16.29,14.481 -10.803,18.139C-7.396,20.626 -3.008,20.136 0,18.41" style="fill:rgb(26,46,53);fill-rule:nonzero;"/>
        </g>
        <g transform="matrix(1.49052,0,0,1.49052,-30.7287,-141.425)">
            <g opacity="0.6">
                <g transform="matrix(1,0,0,1,152.498,227.512)">
                    <path d="M0,14.761C3.159,9.66 2.709,-0.679 2.703,-0.798C2.698,-0.911 2.785,-1.007 2.898,-1.012C3.012,-1.02 3.107,-0.931 3.113,-0.817C3.138,-0.302 3.623,10.943 -0.216,15.781L0,14.761Z" style="fill:white;fill-rule:nonzero;"/>
                </g>
            </g>
        </g>
        <g transform="matrix(1.49052,0,0,1.49052,170.94,161.755)">
            <path d="M0,27.229C0,27.229 -3.296,20.231 -3.678,12.962C-4.06,5.694 2.118,-1.691 8.326,-0.24C8.326,-0.24 15.711,-3.559 20.331,0.276C24.951,4.111 29.5,15.925 21.687,30.788C21.687,30.788 7.357,26.347 0,27.229" style="fill:rgb(26,46,53);fill-rule:nonzero;"/>
        </g>
        <g transform="matrix(-0.0641426,1.48914,1.48914,0.0641426,258.337,312.751)">
            <path d="M-24.76,-14.428C-24.76,-14.428 4.499,-24.118 13.42,-14.428" style="fill:none;fill-rule:nonzero;stroke:rgb(26,46,53);stroke-width:0.29px;"/>
        </g>
        <g transform="matrix(1.49052,0,0,1.49052,234.517,249.91)">
            <path d="M0,2.858L3.315,-0.187L8.11,-3.468L15.923,1.975L12.363,3.748C12.363,3.748 9.788,6.22 5.982,5.231L3.315,6.326L0,2.858Z" style="fill:rgb(231,123,98);fill-rule:nonzero;"/>
        </g>
        <g transform="matrix(1.49052,0,0,1.49052,211.786,287.781)">
            <path d="M0,-41.099C3.481,-37.583 5.818,-15.606 5.818,-15.606L15.877,-24.528L21.231,-18.477C21.231,-18.477 8.493,0 3.086,-1.452C-2.321,-2.902 -6.41,-17.31 -6.41,-17.31L0,-41.099Z" style="fill:rgb(32,182,87);fill-rule:nonzero;"/>
        </g>
        <g transform="matrix(1.49052,0,0,1.49052,-30.7287,-141.425)">
            <g opacity="0.6">
                <g transform="matrix(1,0,0,1,183.938,265.341)">
                    <path d="M0,4.14C0,4.14 -12.74,22.62 -18.15,21.17C-19.19,20.89 -20.19,20.12 -21.12,19.07C-24.98,14.68 -27.64,5.31 -27.64,5.31L-26.16,-0.17L-21.23,-18.48C-17.75,-14.97 -15.41,7.01 -15.41,7.01L-5.36,-1.91L0,4.14Z" style="fill:white;fill-rule:nonzero;"/>
                </g>
            </g>
        </g>
        <g transform="matrix(1.49052,0,0,1.49052,-30.7287,-141.425)">
            <g opacity="0.1">
                <g transform="matrix(0.967357,-0.253417,-0.253417,-0.967357,166.085,283.497)">
                    <path d="M-3.392,-0.055C-6.014,5.17 -6.212,14.908 -6.212,14.908L-3.392,19.833L2.581,25.546C2.581,25.546 1.883,9.428 -3.392,-0.055" style="fill-rule:nonzero;"/>
                </g>
            </g>
        </g>
        <g transform="matrix(1.49052,0,0,1.49052,170.53,319.817)">
            <path d="M0,-73.646L13.505,-71.016C13.505,-71.016 19.948,-67.687 21.269,-55.272C22.589,-42.857 19.471,-16.25 15.821,-8.125C12.171,0 -20.825,-6.266 -20.825,-6.266L-10.51,-42.669L-11.96,-66.725L0,-73.646Z" style="fill:rgb(32,182,87);fill-rule:nonzero;"/>
        </g>
        <g transform="matrix(1.49052,0,0,1.49052,-30.7287,-141.425)">
            <g opacity="0.6">
                <g transform="matrix(1,0,0,1,135.026,309.451)">
                    <path d="M0,-73.646L13.505,-71.016C13.505,-71.016 19.948,-67.687 21.269,-55.272C22.589,-42.857 19.471,-16.25 15.821,-8.125C12.171,0 -20.825,-6.266 -20.825,-6.266L-10.51,-42.669L-11.96,-66.725L0,-73.646Z" style="fill:white;fill-rule:nonzero;"/>
                </g>
            </g>
        </g>
        <g transform="matrix(1.49052,0,0,1.49052,-30.7287,-141.425)">
            <g opacity="0.2">
                <g transform="matrix(1,0,0,1,135.026,309.451)">
                    <path d="M0,-73.646L13.505,-71.016C13.505,-71.016 19.948,-67.687 21.269,-55.272C22.589,-42.857 19.471,-16.25 15.821,-8.125C12.171,0 -20.825,-6.266 -20.825,-6.266L-10.51,-42.669L-11.96,-66.725L0,-73.646Z" style="fill-rule:nonzero;"/>
                </g>
            </g>
        </g>
        <g transform="matrix(1.49052,0,0,1.49052,208.618,262.297)">
            <path d="M0,-13.221C-0.624,-10.207 -0.794,-7.842 -2.916,-0.801C-4.597,5.186 -6.435,11.034 -9.678,20.733L-40.547,14.869C-37.886,6.445 -36.101,-4.973 -36.951,-25.563C-37.148,-30.336 -33.296,-33.954 -28.677,-33.333C-27.443,-33.167 -26.14,-32.963 -24.812,-32.712C-19.653,-31.74 -15.431,-30.903 -10.999,-29.408C-9.529,-28.912 -8.019,-28.352 -6.58,-27.789C-1.39,-25.759 1.117,-18.62 0,-13.221" style="fill:rgb(32,182,87);fill-rule:nonzero;"/>
        </g>
        <g transform="matrix(1.49052,0,0,1.49052,178.625,225.795)">
            <path d="M0,-23.546C0.139,-18.814 -0.332,-10.317 -3.931,-8.041C-3.931,-8.041 0.431,-7.666 8.047,0C11.523,-3.094 9.884,-4.736 9.884,-4.736C5.122,-7.127 5.855,-10.839 7.288,-14.148L0,-23.546Z" style="fill:rgb(231,123,98);fill-rule:nonzero;"/>
        </g>
        <g transform="matrix(1.49052,0,0,1.49052,-30.7287,-141.425)">
            <g opacity="0.2">
                <g transform="matrix(0.613015,0.790071,0.790071,-0.613015,147.284,226.739)">
                    <path d="M-2.428,-2.997L4.61,-2.997C5.018,-3.747 5.471,-4.475 5.992,-5.12C4.281,-6.132 0.732,-6.237 -0.822,-4.873C-1.598,-4.191 -2.233,-3.448 -2.428,-2.997" style="fill-rule:nonzero;"/>
                </g>
            </g>
        </g>
        <g transform="matrix(1.49052,0,0,1.49052,198.718,311.74)">
            <path d="M0,-62.355C0,-62.355 6.385,-40.236 -4.091,0C-4.091,0 9.615,-35.584 8.767,-57.173L0,-62.355Z" style="fill:rgb(32,182,87);fill-rule:nonzero;"/>
        </g>
        <g transform="matrix(1.49052,0,0,1.49052,-30.7287,-141.425)">
            <g opacity="0.6">
                <g transform="matrix(1,0,0,1,153.938,304.032)">
                    <path d="M0,-62.355C0,-62.355 6.385,-40.236 -4.091,0C-4.091,0 9.615,-35.584 8.767,-57.173L0,-62.355Z" style="fill:white;fill-rule:nonzero;"/>
                </g>
            </g>
        </g>
        <g transform="matrix(1.49052,0,0,1.49052,190.659,264.52)">
            <path d="M0,-33.917L10.806,-28.493L7.726,-27.146L11.306,-23.774L6.858,0C6.858,0 7.401,-26.064 0,-33.917" style="fill:rgb(32,182,87);fill-rule:nonzero;"/>
        </g>
        <g transform="matrix(1.49052,0,0,1.49052,-30.7287,-141.425)">
            <g opacity="0.7">
                <g transform="matrix(1,0,0,1,148.531,272.352)">
                    <path d="M0,-33.917L10.806,-28.493L7.726,-27.146L11.306,-23.774L6.858,0C6.858,0 7.401,-26.064 0,-33.917" style="fill:white;fill-rule:nonzero;"/>
                </g>
            </g>
        </g>
        <g transform="matrix(-0.735327,1.29651,1.29651,0.735327,205.414,175.081)">
            <path d="M12.735,-15.436C19.025,-11.336 21.766,-9.738 23.43,-4.493C25.931,3.393 20.005,10.36 12.735,8.256C6.191,6.362 -2.998,-0.024 -2.345,-7.984C-1.703,-15.824 6.444,-19.536 12.735,-15.436" style="fill:rgb(231,123,98);fill-rule:nonzero;"/>
        </g>
        <g transform="matrix(-0.074945,1.48863,1.48863,0.074945,190.939,182.777)">
            <path d="M0.724,-0.762C1.353,-0.72 1.863,-0.36 1.863,0.042C1.864,0.442 1.354,0.732 0.724,0.689C0.094,0.646 -0.415,0.286 -0.415,-0.115C-0.415,-0.516 0.094,-0.806 0.724,-0.762" style="fill:rgb(26,46,53);fill-rule:nonzero;"/>
        </g>
        <g transform="matrix(-0.074945,1.48863,1.48863,0.074945,202.578,183.006)">
            <path d="M0.725,-0.763C1.354,-0.719 1.864,-0.359 1.864,0.041C1.864,0.442 1.354,0.733 0.725,0.689C0.095,0.645 -0.415,0.285 -0.414,-0.115C-0.414,-0.516 0.095,-0.807 0.725,-0.763" style="fill:rgb(26,46,53);fill-rule:nonzero;"/>
        </g>
        <g transform="matrix(1.49052,0,0,1.49052,202.174,183.047)">
            <path d="M0,-0.421L1.463,-0.783C1.463,-0.783 0.73,0.362 0,-0.421" style="fill:rgb(26,46,53);fill-rule:nonzero;"/>
        </g>
        <g transform="matrix(1.49052,0,0,1.49052,197.879,193.176)">
            <path d="M0,-4.872C0,-4.872 1.089,-2.104 2.258,-0.737C1.463,0 0.082,-0.425 0.082,-0.425L0,-4.872Z" style="fill:rgb(214,76,56);fill-rule:nonzero;"/>
        </g>
        <g transform="matrix(1.49052,0,0,1.49052,192.816,192.247)">
            <path d="M0,2.351C0.318,2.425 0.661,2.476 1.029,2.494C1.128,2.499 1.207,2.42 1.205,2.318C1.203,2.216 1.124,2.13 1.021,2.123C-1.665,1.99 -2.958,-0.009 -2.97,-0.029C-3.026,-0.118 -3.138,-0.148 -3.22,-0.096C-3.302,-0.045 -3.324,0.07 -3.268,0.158C-3.219,0.236 -2.179,1.846 0,2.351" style="fill:rgb(26,46,53);fill-rule:nonzero;"/>
        </g>
        <g transform="matrix(1.49052,0,0,1.49052,187.926,174.951)">
            <path d="M0,1.925C0.095,1.938 0.192,1.913 0.268,1.847C1.451,0.816 2.737,1.228 2.751,1.233C2.942,1.295 3.14,1.192 3.189,0.997C3.239,0.803 3.123,0.593 2.93,0.529C2.863,0.507 1.25,-0.013 -0.218,1.268C-0.364,1.396 -0.375,1.629 -0.24,1.789C-0.175,1.866 -0.089,1.912 0,1.925" style="fill:rgb(26,46,53);fill-rule:nonzero;"/>
        </g>
        <g transform="matrix(1.49052,0,0,1.49052,206.037,174.367)">
            <path d="M0,2.492C0.088,2.516 0.182,2.508 0.263,2.46C0.431,2.362 0.48,2.137 0.375,1.957C-0.692,0.155 -2.353,-0.002 -2.423,-0.008C-2.622,-0.024 -2.785,0.128 -2.788,0.332C-2.79,0.536 -2.631,0.715 -2.433,0.732C-2.368,0.737 -1.081,0.878 -0.233,2.311C-0.178,2.404 -0.093,2.466 0,2.492" style="fill:rgb(26,46,53);fill-rule:nonzero;"/>
        </g>
        <g transform="matrix(1.49052,0,0,1.49052,190.536,182.814)">
            <path d="M0,-0.419L1.463,-0.782C1.463,-0.782 0.73,0.363 0,-0.419" style="fill:rgb(26,46,53);fill-rule:nonzero;"/>
        </g>
        <g transform="matrix(1.49052,0,0,1.49052,186.176,189.919)">
            <path d="M0,-13.419C0,-13.419 8.548,-7.646 13.271,-10.248C13.271,-10.248 14.389,-17.993 2.809,-18.602C-8.772,-19.211 -20.063,-3.312 -4.424,5.792L-4.466,-2.973C-4.466,-2.973 -0.252,-7.577 0,-13.419" style="fill:rgb(26,46,53);fill-rule:nonzero;"/>
        </g>
        <g transform="matrix(0.113651,1.48618,1.48618,-0.113651,175.246,184.33)">
            <path d="M3.125,-2.155C4.744,-1.44 5.853,-0.115 6.32,1.16C7.024,3.074 5.169,4.117 3.125,3.654C1.286,3.238 -1.296,1.741 -1.113,-0.216C-0.932,-2.143 1.276,-2.975 3.125,-2.155" style="fill:rgb(231,123,98);fill-rule:nonzero;"/>
        </g>
        <g transform="matrix(1.49052,0,0,1.49052,212.008,462.344)">
            <path d="M0,10.666C-6.607,10.666 -7.479,10.564 -11.192,10.439C-14.371,10.326 -15.131,10.724 -17.685,10.666C-19.82,10.621 -19.74,8.578 -19.082,6.228C-18.752,5.048 -18.245,2.553 -17.791,0.645L-8.112,-0.058C-6.75,2.542 -3.677,6.25 0.047,6.75C3.6,7.228 2.634,10.666 0,10.666" style="fill:rgb(26,46,53);fill-rule:nonzero;"/>
        </g>
        <g transform="matrix(1.49052,0,0,1.49052,152.506,464.594)">
            <path d="M0,-120.854C0,-120.854 -16.121,-98.332 -8.389,-84.5C-0.656,-70.669 42.306,-69.602 42.306,-69.602C42.306,-69.602 31.157,-52.598 22.917,-1.279L32.358,0C32.358,0 70.992,-69.536 67.862,-82.027C64.731,-94.517 27.698,-102.624 27.698,-102.624L27.968,-114.99L0,-120.854Z" style="fill:rgb(32,182,87);fill-rule:nonzero;"/>
        </g>
        <g transform="matrix(1.49052,0,0,1.49052,-30.7287,-141.425)">
            <g opacity="0.2">
                <g transform="matrix(1,0,0,1,155.288,285.728)">
                    <path d="M0,120.853L-9.44,119.573C-1.2,68.252 9.95,51.252 9.95,51.252C9.95,51.252 -11.791,50.712 -27.12,45.413C-33.34,43.273 -38.51,40.342 -40.74,36.353C-48.47,22.523 -32.354,0 -32.354,0L-4.386,5.865L-4.66,18.233C-4.66,18.233 28.65,25.523 34.76,36.932C35.1,37.552 35.35,38.182 35.51,38.832C38.64,51.323 0,120.853 0,120.853" style="fill-rule:nonzero;"/>
                </g>
            </g>
        </g>
        <g transform="matrix(1.49052,0,0,1.49052,-30.7287,-141.425)">
            <g opacity="0.2">
                <g transform="matrix(1,0,0,1,155.288,303.961)">
                    <path d="M0,102.62L-9.44,101.34C-1.2,50.019 9.95,33.019 9.95,33.019C9.95,33.019 -11.791,32.479 -27.12,27.18L-11.66,0C-11.66,0 19.32,4.87 34.76,18.699C35.1,19.319 35.35,19.949 35.51,20.599C38.64,33.09 0,102.62 0,102.62" style="fill-rule:nonzero;"/>
                </g>
            </g>
        </g>
        <g transform="matrix(1.49052,0,0,1.49052,186.653,462.344)">
            <path d="M0,10.666C-6.606,10.666 -7.479,10.564 -11.192,10.439C-14.371,10.326 -15.131,10.724 -17.685,10.666C-19.819,10.621 -19.74,8.578 -19.082,6.228C-18.752,5.048 -18.245,2.553 -17.791,0.645L-8.112,-0.058C-6.75,2.542 -3.677,6.25 0.047,6.75C3.6,7.228 2.634,10.666 0,10.666" style="fill:rgb(26,46,53);fill-rule:nonzero;"/>
        </g>
        <g transform="matrix(1.49052,0,0,1.49052,148.848,464.594)">
            <path d="M0,-122.267C0,-122.267 -20.671,-98.331 -12.939,-84.5C-5.207,-70.669 37.755,-69.602 37.755,-69.602C37.755,-69.602 16.797,-47.378 8.36,-1.279L17.801,0C17.801,0 66.441,-69.536 63.312,-82.027C60.181,-94.517 23.147,-102.623 23.147,-102.623L23.147,-116.73L0,-122.267Z" style="fill:rgb(63,203,115);fill-rule:nonzero;"/>
        </g>
        <g transform="matrix(1.49052,0,0,1.49052,-30.7287,-141.425)">
            <g opacity="0.2">
                <g transform="matrix(1,0,0,1,120.48,406.582)">
                    <path d="M0,-122.267C0,-122.267 -20.671,-98.331 -12.939,-84.5C-5.207,-70.669 37.755,-69.602 37.755,-69.602C37.755,-69.602 16.797,-47.378 8.36,-1.279L17.801,0C17.801,0 66.441,-69.536 63.312,-82.027C60.181,-94.517 23.147,-102.623 23.147,-102.623L23.147,-116.73L0,-122.267Z" style="fill:rgb(63,203,115);fill-rule:nonzero;"/>
                </g>
            </g>
        </g>
        <g transform="matrix(1.49052,0,0,1.49052,134.042,210.046)">
            <path d="M0,79.713C4.503,70.007 9.144,60.625 13.285,53.448C27.576,28.686 24.48,0 24.48,0C24.48,0 13.166,1.918 11.904,2.319C10.642,2.721 7.606,44.572 7.606,44.572C1.609,52.85 -4.857,66.223 -10.601,79.713L0,79.713Z" style="fill:rgb(32,182,87);fill-rule:nonzero;"/>
        </g>
        <g transform="matrix(1.49052,0,0,1.49052,-30.7287,-141.425)">
            <g opacity="0.6">
                <g transform="matrix(1,0,0,1,110.545,235.801)">
                    <path d="M0,79.717C4.501,70.012 9.141,60.632 13.282,53.46C15.382,49.82 17.112,46.09 18.522,42.39C19.062,40.98 19.552,39.58 20.002,38.19C26.442,18.24 24.472,0 24.472,0C24.472,0 13.162,1.92 11.902,2.32C11.482,2.46 10.852,7.28 10.222,13.62C10.132,14.48 10.052,15.37 9.962,16.28C9.702,18.95 9.442,21.79 9.202,24.6C9.082,25.95 8.972,27.3 8.862,28.62C8.142,37.21 7.612,44.58 7.612,44.58C1.613,52.857 -4.854,66.227 -10.599,79.717L0,79.717Z" style="fill:rgb(32,182,87);fill-rule:nonzero;"/>
                </g>
            </g>
        </g>
        <g transform="matrix(1.49052,0,0,1.49052,170.53,264.822)">
            <path d="M0,-36.749L-8.519,-32.139L-2.541,-27.741L-5.77,-23.791L-4.03,0C-4.03,0 5.51,-22.969 0,-36.749" style="fill:rgb(32,182,87);fill-rule:nonzero;"/>
        </g>
        <g transform="matrix(1.49052,0,0,1.49052,-30.7287,-141.425)">
            <g opacity="0.7">
                <g transform="matrix(1,0,0,1,135.026,272.554)">
                    <path d="M0,-36.749L-8.519,-32.139L-2.541,-27.741L-5.77,-23.791L-4.03,0C-4.03,0 5.51,-22.969 0,-36.749" style="fill:white;fill-rule:nonzero;"/>
                </g>
            </g>
        </g>
        <g transform="matrix(1.49052,0,0,1.49052,-30.7287,-141.425)">
            <g opacity="0.1">
                <g transform="matrix(1,0,0,1,129.067,247.11)">
                    <path d="M0,31.08C-3.41,29.471 -7.11,22.78 -9.66,17.31C-9.55,15.99 -9.44,14.641 -9.32,13.29C-9.08,10.48 -8.82,7.641 -8.56,4.971C-8.47,4.06 -8.39,3.17 -8.3,2.31L-6.43,-0.74C-6.43,-0.74 0.34,18.12 1.48,26.88C1.88,29.98 1.57,31.82 0,31.08" style="fill-rule:nonzero;"/>
                </g>
            </g>
        </g>
        <g transform="matrix(1.49052,0,0,1.49052,220.821,258.547)">
            <path d="M0,7.81C0,7.81 2.505,1.704 5.67,-1.58C8.835,-4.864 21.626,-2.968 22.022,-2.465C22.417,-1.962 23.209,3.266 22.417,5.597C21.626,7.927 12.66,12.674 12.66,12.674L0.923,12.674C0.923,12.674 -0.886,9.762 0,7.81" style="fill:rgb(26,46,53);fill-rule:nonzero;"/>
        </g>
        <g transform="matrix(1.49052,0,0,1.49052,-30.7287,-141.425)">
            <g opacity="0.3">
                <g transform="matrix(1,0,0,1,191.487,272.22)">
                    <path d="M0,0.06C-0.05,0.69 -0.15,1.26 -0.3,1.72C-1.09,4.05 -10.06,8.8 -10.06,8.8L-21.8,8.8C-21.8,8.8 -23.61,5.89 -22.72,3.93C-22.72,3.93 -20.22,-2.169 -17.05,-5.46C-13.89,-8.74 -1.09,-6.85 -0.7,-6.339C-0.38,-5.94 0.19,-2.49 0,0.06" style="fill:white;fill-rule:nonzero;"/>
                </g>
            </g>
        </g>
        <g transform="matrix(1.49052,0,0,1.49052,-30.7287,-141.425)">
            <g opacity="0.1">
                <g transform="matrix(1,0,0,1,191.487,280.21)">
                    <path d="M0,-7.93C-0.05,-7.3 -0.15,-6.73 -0.3,-6.27C-1.09,-3.94 -10.06,0.81 -10.06,0.81L-21.8,0.81C-21.8,0.81 -14.13,-8.18 -13.43,-8.47C-12.8,-8.74 -2.79,-8.73 0,-7.93" style="fill-rule:nonzero;"/>
                </g>
            </g>
        </g>
        <g transform="matrix(1.49052,0,0,1.49052,199.37,270.352)">
            <path d="M0,-4.861L13.591,-5.912L21.701,-6.784L28.294,-3.934L24.437,1.923L20.851,0.879C20.851,0.879 17.35,1.473 14.312,-0.383L2.354,0.616L0,-4.861Z" style="fill:rgb(231,123,98);fill-rule:nonzero;"/>
        </g>
        <g transform="matrix(1.49052,0,0,1.49052,179.212,187.867)">
            <path d="M0,19.944C-4.16,13.036 -2.777,0.853 -2.698,0.193C-2.685,0.08 -2.583,0 -2.47,0.013C-2.356,0.025 -2.277,0.129 -2.291,0.241C-2.31,0.398 -3.662,12.32 0.14,19.285L0,19.944Z" style="fill:rgb(26,46,53);fill-rule:nonzero;"/>
        </g>
        <g transform="matrix(1.49052,0,0,1.49052,-30.7287,-141.425)">
            <g opacity="0.6">
                <g transform="matrix(1,0,0,1,140.851,220.924)">
                    <path d="M0,19.944C-4.16,13.036 -2.777,0.853 -2.698,0.193C-2.685,0.08 -2.583,0 -2.47,0.013C-2.356,0.025 -2.277,0.129 -2.291,0.241C-2.31,0.398 -3.662,12.32 0.14,19.285L0,19.944Z" style="fill:white;fill-rule:nonzero;"/>
                </g>
            </g>
        </g>
        <g transform="matrix(1.49052,0,0,1.49052,175.704,186.762)">
            <path d="M0,1.627C0.244,1.429 0.547,1.566 0.578,0.9C0.608,0.234 -0.528,-0.053 -0.421,1.68L0,1.627Z" style="fill:rgb(26,46,53);fill-rule:nonzero;"/>
        </g>
        <g transform="matrix(1.49052,0,0,1.49052,-30.7287,-141.425)">
            <g opacity="0.6">
                <g transform="matrix(1,0,0,1,138.497,220.183)">
                    <path d="M0,1.627C0.244,1.429 0.547,1.566 0.578,0.9C0.608,0.234 -0.528,-0.053 -0.421,1.68L0,1.627Z" style="fill:white;fill-rule:nonzero;"/>
                </g>
            </g>
        </g>
        <g transform="matrix(1.49052,0,0,1.49052,176.225,225.82)">
            <path d="M0,-11.68C0.954,-7.045 3.021,-2.702 7.302,-1.426C12.083,0 14.419,-3.849 15.55,-8.375" style="fill:none;fill-rule:nonzero;stroke:rgb(26,46,53);stroke-width:0.55px;"/>
        </g>
        <g transform="matrix(1.49052,0,0,1.49052,188.865,295.74)">
            <path d="M0,-48.086C0,-48.086 -2.158,-24.844 1.204,-13.032C2.451,-8.653 8.971,-4.944 7.535,0" style="fill:none;fill-rule:nonzero;stroke:rgb(26,46,53);stroke-width:0.55px;"/>
        </g>
        <g transform="matrix(1.49052,0,0,1.49052,197.879,308.399)">
            <path d="M0,-10.669L3.229,-10.197C3.229,-10.197 1.276,0 -2.055,-1.627L0,-10.669Z" style="fill:rgb(32,182,87);fill-rule:nonzero;"/>
        </g>
        <g transform="matrix(1.49052,0,0,1.49052,-30.7287,-141.425)">
            <g opacity="0.6">
                <g transform="matrix(1,0,0,1,153.374,301.79)">
                    <path d="M0,-10.669L3.229,-10.197C3.229,-10.197 1.276,0 -2.055,-1.627L0,-10.669Z" style="fill:white;fill-rule:nonzero;"/>
                </g>
            </g>
        </g>
        <g transform="matrix(1.49052,0,0,1.49052,151.786,278.63)">
            <path d="M0,-43.698C-9.275,-39.949 2.135,-1.978 9.172,-0.989C16.209,0 43.34,-3.368 43.34,-3.368L43.34,-12.338C43.34,-12.338 15.383,-11.558 14.394,-12.943C13.405,-14.328 8.918,-29.907 6.779,-35.448C4.966,-40.141 0,-43.698 0,-43.698" style="fill:rgb(32,182,87);fill-rule:nonzero;"/>
        </g>
        <g transform="matrix(1.49052,0,0,1.49052,-30.7287,-141.425)">
            <g opacity="0.6">
                <g transform="matrix(1,0,0,1,122.451,281.818)">
                    <path d="M0,-43.698C-9.275,-39.949 2.135,-1.978 9.172,-0.989C16.209,0 43.34,-3.368 43.34,-3.368L43.34,-12.338C43.34,-12.338 15.383,-11.558 14.394,-12.943C13.405,-14.328 8.918,-29.907 6.779,-35.448C4.966,-40.141 0,-43.698 0,-43.698" style="fill:white;fill-rule:nonzero;"/>
                </g>
            </g>
        </g>
        <g transform="matrix(1.49052,0,0,1.49052,317.827,259.338)">
            <path d="M0,88.082L95.291,88.082C97.615,88.082 99.5,86.198 99.5,83.874L99.5,18.484C99.5,8.276 91.224,0 81.015,0L14.276,0C4.067,0 -4.209,8.276 -4.209,18.484L-4.209,83.874C-4.209,86.198 -2.325,88.082 0,88.082" style="fill:rgb(26,46,53);fill-rule:nonzero;"/>
        </g>
        <g transform="matrix(1.49052,0,0,1.49052,-30.7287,-141.425)">
            <g opacity="0.4">
                <g transform="matrix(1,0,0,1,233.849,268.875)">
                    <path d="M0,88.082L95.291,88.082C97.615,88.082 99.5,86.198 99.5,83.874L99.5,18.484C99.5,8.276 91.224,0 81.015,0L14.276,0C4.067,0 -4.209,8.276 -4.209,18.484L-4.209,83.874C-4.209,86.198 -2.325,88.082 0,88.082" style="fill:white;fill-rule:nonzero;"/>
                </g>
            </g>
        </g>
        <g transform="matrix(1.49052,0,0,1.49052,230.448,302.783)">
            <path d="M0,116.964L54.414,116.964L54.414,18.839C54.414,8.435 45.979,0 35.575,0L18.839,0C8.435,0 0,8.435 0,18.839L0,116.964Z" style="fill:rgb(26,46,53);fill-rule:nonzero;"/>
        </g>
        <g transform="matrix(1.49052,0,0,1.49052,-30.7287,-141.425)">
            <g opacity="0.4">
                <g transform="matrix(1,0,0,1,175.226,298.022)">
                    <path d="M0,116.964L54.414,116.964L54.414,18.839C54.414,8.435 45.979,0 35.575,0L18.839,0C8.435,0 0,8.435 0,18.839L0,116.964Z" style="fill:white;fill-rule:nonzero;"/>
                </g>
            </g>
        </g>
        <g transform="matrix(1.49052,0,0,1.49052,-30.7287,-141.425)">
            <g opacity="0.5">
                <g transform="matrix(1,0,0,1,175.226,298.022)">
                    <path d="M0,116.964L31.299,116.964L31.299,15.651C31.299,7.007 24.292,0 15.65,0C7.007,0 0,7.007 0,15.651L0,116.964Z" style="fill:white;fill-rule:nonzero;"/>
                </g>
            </g>
        </g>
        <g transform="matrix(1.49052,0,0,1.49052,-30.7287,292.063)">
            <rect x="213.115" y="85.013" width="101.014" height="39.144" style="fill:rgb(26,46,53);"/>
        </g>
        <g transform="matrix(1.49052,0,0,1.49052,-30.7287,-141.425)">
            <g opacity="0.4">
                <g transform="matrix(1,0,0,1,0,290.83)">
                    <rect x="213.115" y="85.013" width="101.013" height="39.143" style="fill:white;"/>
                </g>
            </g>
        </g>
        <g transform="matrix(1.49052,0,0,1.49052,291.751,377.602)">
            <path d="M0,41.067L87.575,41.067C98.153,41.067 106.728,32.492 106.728,21.914L106.728,19.152C106.728,8.575 98.152,0 87.575,0L0,0C-10.578,0 -19.153,8.575 -19.153,19.152L-19.153,21.914C-19.153,32.492 -10.578,41.067 0,41.067" style="fill:rgb(26,46,53);fill-rule:nonzero;"/>
        </g>
        <g transform="matrix(1.49052,0,0,1.49052,-30.7287,-141.425)">
            <g opacity="0.6">
                <g transform="matrix(1,0,0,1,216.354,348.219)">
                    <path d="M0,41.067L87.575,41.067C98.153,41.067 106.728,32.492 106.728,21.914L106.728,19.152C106.728,8.575 98.152,0 87.575,0L0,0C-10.578,0 -19.153,8.575 -19.153,19.152L-19.153,21.914C-19.153,32.492 -10.578,41.067 0,41.067" style="fill:white;fill-rule:nonzero;"/>
                </g>
            </g>
        </g>
        <g transform="matrix(1.49052,0,0,1.49052,-30.7287,-141.425)">
            <g opacity="0.2">
                <g transform="matrix(1,0,0,1,288.973,348.219)">
                    <path d="M0,41.067L14.67,41.067C25.248,41.067 33.823,32.492 33.823,21.914L33.823,19.152C33.823,8.575 25.248,0 14.67,0L0,0C-10.578,0 -19.153,8.575 -19.153,19.152L-19.153,21.914C-19.153,32.492 -10.578,41.067 0,41.067" style="fill-rule:nonzero;"/>
                </g>
            </g>
        </g>
        <g transform="matrix(-1.38531,0.550064,0.550064,1.38531,301.068,360.936)">
            <path d="M-35.247,-39.389C-35.247,-39.389 -8.751,-0.275 -5.429,-39.389" style="fill:none;fill-rule:nonzero;stroke:rgb(26,46,53);stroke-width:0.29px;"/>
        </g>
        <g transform="matrix(1.49052,0,0,1.49052,357.017,305.364)">
            <path d="M0,-49.045C-8.109,-45.819 -24.725,-17.706 -25.318,-16.532C-25.912,-15.357 -48.065,-6.831 -48.065,-6.831L-46.164,0C-46.164,0 -24.84,-4.635 -21.024,-6.831C-17.208,-9.028 -1.815,-24.523 -1.815,-24.523L0,-49.045Z" style="fill:rgb(255,140,123);fill-rule:nonzero;"/>
        </g>
        <g transform="matrix(1.49052,0,0,1.49052,357.011,281.927)">
            <path d="M0,-33.319L-0.391,-7.149C-0.391,-7.149 -2.36,-5.13 -4.67,-3.239C-6.73,-1.569 -9.05,0 -10.51,-0.049L-19.31,-8.799C-19.3,-16.769 -7.31,-30.489 0,-33.319" style="fill:rgb(32,182,87);fill-rule:nonzero;"/>
        </g>
        <g transform="matrix(1.49052,0,0,1.49052,-30.7287,-141.425)">
            <g opacity="0.2">
                <g transform="matrix(1,0,0,1,255.467,271.019)">
                    <path d="M0,9.772C-2.06,11.442 -4.38,13.011 -5.84,12.961C-8.33,8.551 -0.93,-3.239 -0.93,-3.239C-0.93,-3.239 0.58,4.511 0,9.772" style="fill-rule:nonzero;"/>
                </g>
            </g>
        </g>
        <g transform="matrix(-1.38921,-0.540122,-0.540122,1.38921,227.285,440.579)">
            <path d="M-0.64,24.905L7.156,24.905L7.47,1.208L-3.31,0.595L-0.64,24.905Z" style="fill:rgb(255,140,123);fill-rule:nonzero;"/>
        </g>
        <g transform="matrix(1.49052,0,0,1.49052,-30.7287,-141.425)">
            <g opacity="0.2">
                <g transform="matrix(-0.350118,0.936705,0.936705,0.350118,176.921,397.364)">
                    <path d="M-4.001,-13.473L10.068,-13.473L9.979,-4.465L-4.473,-2.683L-4.001,-13.473Z" style="fill-rule:nonzero;"/>
                </g>
            </g>
        </g>
        <g transform="matrix(1.49052,0,0,1.49052,363.808,401.781)">
            <path d="M0,-16.26C-5.25,-12.9 -14.57,-11.86 -24.08,-11.86C-33.76,-11.86 -43.63,-12.93 -49.58,-13.72C-49.58,-13.72 -67.18,11.55 -83.32,29C-86.15,32.07 -88.94,34.89 -91.58,37.29L-102.9,33.58C-102.9,33.58 -84.45,-17.69 -71.78,-33.531C-70.97,-34.99 -69.56,-36.51 -67.23,-37.89C-66.86,-38.12 -66.51,-38.31 -66.15,-38.48C-62.3,-40.46 -56.32,-42.06 -47.09,-42.68C-40.8,-43.1 -33.01,-43.06 -23.36,-42.36L-12.3,-53.55L11.6,-52.58C11.6,-52.58 13.68,-25.04 0,-16.26" style="fill:rgb(26,46,53);fill-rule:nonzero;"/>
        </g>
        <g transform="matrix(1.49052,0,0,1.49052,-30.7287,-141.425)">
            <g opacity="0.2">
                <g transform="matrix(1,0,0,1,264.697,356.151)">
                    <path d="M0,-7.97C-5.25,-4.61 -14.57,-3.57 -24.08,-3.57C-33.76,-3.57 -43.63,-4.64 -49.58,-5.43C-49.58,-5.43 -67.18,19.84 -83.32,37.29C-85.1,-1.05 -64.33,-22.92 -47.09,-34.39C-40.8,-34.81 -33.01,-34.77 -23.36,-34.07L-12.3,-45.26L11.6,-44.29C11.6,-44.29 13.68,-16.75 0,-7.97" style="fill-rule:nonzero;"/>
                </g>
            </g>
        </g>
        <g transform="matrix(1.49052,0,0,1.49052,206.284,477.485)">
            <path d="M0,-9.65L9.108,-9.506C9.449,-9.502 9.729,-9.259 9.781,-8.925L10.949,-1.48C11.07,-0.709 10.439,0.011 9.653,-0.014C6.372,-0.122 1.636,-0.389 -2.493,-0.454C-7.322,-0.53 -6.842,-0.332 -12.505,-0.421C-15.929,-0.474 -16.655,-3.954 -15.202,-4.245C-8.585,-5.571 -7.915,-5.64 -2.051,-9.031C-1.414,-9.399 -0.72,-9.661 0,-9.65" style="fill:rgb(26,46,53);fill-rule:nonzero;"/>
        </g>
        <g transform="matrix(-0.245699,1.47013,1.47013,0.245699,230.227,443.59)">
            <path d="M2.793,-13.568L8.659,-13.568L11.734,0.893L6.506,2.512L2.793,-13.568Z" style="fill:rgb(26,46,53);fill-rule:nonzero;"/>
        </g>
        <g transform="matrix(-1.38921,-0.540122,-0.540122,1.38921,257.114,442.07)">
            <path d="M-0.64,24.905L7.156,24.905L7.47,1.208L-3.31,0.596L-0.64,24.905Z" style="fill:rgb(255,140,123);fill-rule:nonzero;"/>
        </g>
        <g transform="matrix(1.49052,0,0,1.49052,-30.7287,-141.425)">
            <g opacity="0.2">
                <g transform="matrix(-0.350118,0.936705,0.936705,0.350118,196.934,398.365)">
                    <path d="M-4.001,-13.473L10.068,-13.473L9.979,-4.465L-4.473,-2.683L-4.001,-13.473Z" style="fill-rule:nonzero;"/>
                </g>
            </g>
        </g>
        <g transform="matrix(1.49052,0,0,1.49052,236.114,478.977)">
            <path d="M0,-9.65L9.108,-9.507C9.449,-9.502 9.729,-9.26 9.781,-8.925L10.949,-1.481C11.07,-0.709 10.439,0.011 9.653,-0.015C6.371,-0.123 1.636,-0.389 -2.494,-0.455C-7.322,-0.53 -6.842,-0.332 -12.505,-0.421C-15.929,-0.474 -16.655,-3.954 -15.202,-4.245C-8.585,-5.571 -7.915,-5.64 -2.051,-9.031C-1.414,-9.4 -0.72,-9.661 0,-9.65" style="fill:rgb(26,46,53);fill-rule:nonzero;"/>
        </g>
        <g transform="matrix(-0.245699,1.47013,1.47013,0.245699,260.057,443.59)">
            <path d="M2.793,-13.568L8.659,-13.568L11.734,0.893L6.506,2.512L2.793,-13.568Z" style="fill:rgb(26,46,53);fill-rule:nonzero;"/>
        </g>
        <g transform="matrix(1.49052,0,0,1.49052,410.924,455.913)">
            <path d="M0,-88.896L-23.896,-89.864L-34.955,-78.676C-58.755,-80.41 -71.271,-78.12 -77.751,-74.802C-78.104,-74.631 -78.462,-74.437 -78.828,-74.208C-81.159,-72.828 -82.565,-71.311 -83.381,-69.849C-96.051,-54.005 -114.496,-2.735 -114.496,-2.735L-103.176,0.968C-85.5,-15.127 -61.182,-50.039 -61.182,-50.039C-49.392,-48.474 -22.185,-45.791 -11.601,-52.578C2.086,-61.355 0,-88.896 0,-88.896" style="fill:rgb(26,46,53);fill-rule:nonzero;"/>
        </g>
        <g transform="matrix(1.49052,0,0,1.49052,419.642,295.641)">
            <path d="M0,-20.34C0.04,-16.07 -0.1,-11.22 -0.54,-5.81C-1.25,3.02 -2.78,13.36 -5.74,25.19L-56.62,24C-58.66,18.1 -58.69,4.55 -50.34,-8.27C-49.53,-15.96 -50.51,-24.47 -49.87,-32.7C-49.48,-37.84 -44.53,-42.57 -38.35,-43.65C-29.17,-45.24 -19.73,-45.53 -10.09,-44.88C-4.95,-44.54 -1.22,-41.42 -0.88,-37.111C-0.58,-33.19 -0.05,-27.59 0,-20.34" style="fill:rgb(63,203,115);fill-rule:nonzero;"/>
        </g>
        <g transform="matrix(1.49052,0,0,1.49052,-30.7287,-141.425)">
            <g opacity="0.2">
                <g transform="matrix(-0.164841,0.98632,0.98632,0.164841,175.077,392.491)">
                    <path d="M2.793,-13.568L8.659,-13.568L11.734,0.893L6.506,2.512L2.793,-13.568Z" style="fill:white;fill-rule:nonzero;"/>
                </g>
            </g>
        </g>
        <g transform="matrix(1.49052,0,0,1.49052,-30.7287,-141.425)">
            <g opacity="0.2">
                <g transform="matrix(-0.164841,0.98632,0.98632,0.164841,195.09,392.491)">
                    <path d="M2.793,-13.568L8.659,-13.568L11.734,0.893L6.506,2.512L2.793,-13.568Z" style="fill:white;fill-rule:nonzero;"/>
                </g>
            </g>
        </g>
        <g transform="matrix(1.49052,0,0,1.49052,389.892,244.069)">
            <path d="M0,-24.953C0.079,-18.676 0.492,-11.355 4.792,-7.224C2.438,-3.21 -2.534,0 -9.146,-0.57C-16.413,-1.196 -14.593,-6.306 -13.024,-8.929C-9.535,-11.655 -10.541,-15.348 -10.979,-17.934L0,-24.953Z" style="fill:rgb(255,140,123);fill-rule:nonzero;"/>
        </g>
        <g transform="matrix(1.49052,0,0,1.49052,-30.7287,-141.425)">
            <g opacity="0.2">
                <g transform="matrix(-0.44688,-0.894594,-0.894594,0.44688,269.801,238.726)">
                    <path d="M-2.401,-9.973C-2.049,-10.156 -1.683,-10.322 -1.326,-10.482L-2.401,-0.388C-3.903,0.067 -5.855,0.524 -7.365,1.744C-7.581,-2.756 -5.777,-8.243 -2.401,-9.973" style="fill-rule:nonzero;"/>
                </g>
            </g>
        </g>
        <g transform="matrix(1.49052,0,0,1.49052,356.428,290.36)">
            <path d="M0,-7.467C0,-7.467 -1.681,-3.363 -1.385,-2.324C-1.088,-1.286 0,-6.466 0,-6.466C0,-6.466 -0.593,-2.126 -0.247,-1.78C0.099,-1.435 0.593,-6.033 0.593,-6.033C0.593,-6.033 0.445,-2.04 0.593,-1.762C0.742,-1.484 1.483,-5.7 1.483,-5.7C1.483,-5.7 0.742,-1.582 0.989,-1.237C1.236,-0.891 2.126,-5.7 2.126,-5.7C2.126,-5.7 1.83,-1.038 2.126,-0.841C2.423,-0.643 2.67,-5.391 2.67,-5.391C2.67,-5.391 2.769,-0.928 2.967,-0.835C3.165,-0.742 3.363,-5.44 3.363,-5.44C3.363,-5.44 3.264,-0.693 3.758,-0.494C4.253,-0.297 4.055,-5.143 4.055,-5.143C4.055,-5.143 4.302,-0.978 4.698,-0.488C5.093,0 5.008,-4.896 5.008,-4.896C5.008,-4.896 5.291,-0.613 5.687,-0.454C6.083,-0.297 5.687,-5.094 5.687,-5.094C5.687,-5.094 6.478,-1.038 6.973,-1.088C7.467,-1.138 6.478,-7.121 6.478,-7.121L0,-7.467Z" style="fill:rgb(187,142,142);fill-rule:nonzero;"/>
        </g>
        <g transform="matrix(1.49052,0,0,1.49052,365.47,282.279)">
            <path d="M0,-34.683C0,-34.683 -4.879,-30.727 -5.67,-18.925C-6.461,-7.122 -5.67,-3.035 -6.527,-2.177C-7.385,-1.321 -1.583,0 -0.396,-0.33C0.791,-0.661 0.725,-2.507 0.725,-3.101C0.725,-3.694 -0.066,-21.562 3.495,-26.639C7.055,-31.716 0,-34.683 0,-34.683" style="fill:white;fill-rule:nonzero;"/>
        </g>
        <g transform="matrix(1.49052,0,0,1.49052,-30.7287,-141.425)">
            <g opacity="0.4">
                <g transform="matrix(1,0,0,1,269.308,276.211)">
                    <path d="M0,-18.58C-0.8,-17.44 -1.38,-15.65 -1.8,-13.551C-3.24,-6.33 -2.77,4.489 -2.77,4.949C-2.77,5.55 -2.7,7.39 -3.89,7.72C-5.08,8.05 -10.88,6.739 -10.02,5.88C-9.17,5.02 -9.96,0.93 -9.17,-10.87C-8.661,-18.44 -6.46,-22.78 -4.96,-24.92C-4.96,-24.92 -4.97,-24.92 -4.96,-24.931C-4.11,-26.12 -3.49,-26.63 -3.49,-26.63C-3.49,-26.63 3.56,-23.66 0,-18.58" style="fill:rgb(56,42,42);fill-rule:nonzero;"/>
                </g>
            </g>
        </g>
        <g transform="matrix(1.49052,0,0,1.49052,-30.7287,-141.425)">
            <g opacity="0.1">
                <g transform="matrix(1,0,0,1,269.308,254.61)">
                    <path d="M0,3.021C-0.8,4.161 -1.38,5.951 -1.8,8.05C-4.82,5.061 -5.531,0.116 -4.96,-3.319C-4.96,-3.319 -4.97,-3.319 -4.96,-3.33C-4.11,-4.519 -3.49,-5.029 -3.49,-5.029C-3.49,-5.029 3.56,-2.059 0,3.021" style="fill-rule:nonzero;"/>
                </g>
            </g>
        </g>
        <g transform="matrix(1.49052,0,0,1.49052,373.206,244.754)">
            <path d="M0,-11.882C0,-11.882 -0.179,-5.485 6.695,-8.089C12.242,-10.191 13.073,-15.183 13.073,-15.183C13.073,-15.183 15.843,-15.957 16.634,-13.128C16.634,-13.128 19.953,-12.771 21.062,-10.743C22.172,-8.716 10.839,4.075 1.473,3.152C-7.894,2.229 -7.01,-8.148 -5.735,-9.748C-4.461,-11.349 -3.414,-10.21 -3.414,-10.21C-3.414,-10.21 -0.675,-13.792 0,-11.882" style="fill:rgb(56,42,42);fill-rule:nonzero;"/>
        </g>
        <g transform="matrix(1.49052,0,0,1.49052,-30.7287,-141.425)">
            <g opacity="0.4">
                <g transform="matrix(1,0,0,1,271.003,259.09)">
                    <path d="M0,-11.882C0,-11.882 -0.179,-5.485 6.695,-8.089C12.242,-10.191 13.073,-15.183 13.073,-15.183C13.073,-15.183 15.843,-15.957 16.634,-13.128C16.634,-13.128 19.953,-12.771 21.062,-10.743C22.172,-8.716 10.839,4.075 1.473,3.152C-7.894,2.229 -7.01,-8.148 -5.735,-9.748C-4.461,-11.349 -3.414,-10.21 -3.414,-10.21C-3.414,-10.21 -0.675,-13.792 0,-11.882" style="fill:white;fill-rule:nonzero;"/>
                </g>
            </g>
        </g>
        <g transform="matrix(1.49052,0,0,1.49052,361.217,172.883)">
            <path d="M0,19.055C2.565,20.542 8.525,20.389 5.45,8.522C2.856,-1.487 -4.726,16.317 0,19.055" style="fill:rgb(225,225,225);fill-rule:nonzero;"/>
        </g>
        <g transform="matrix(-0.577679,-1.37402,-1.37402,0.577679,365.104,184.453)">
            <path d="M-13.018,-16.503C-20.18,-12.358 -24.586,-10.295 -26.479,-4.677C-29.328,3.773 -21.296,11.177 -13.018,9.249C-5.567,7.514 4.893,1.026 4.151,-7.657C3.419,-16.211 -5.857,-20.649 -13.018,-16.503" style="fill:rgb(255,140,123);fill-rule:nonzero;"/>
        </g>
        <g transform="matrix(1.49052,0,0,1.49052,-30.7287,-141.425)">
            <g opacity="0.2">
                <g transform="matrix(1,0,0,1,274.759,224.611)">
                    <path d="M0,0.701C0,0.701 1.849,-0.255 3.438,0.442C1.601,0.956 0,0.701 0,0.701" style="fill-rule:nonzero;"/>
                </g>
            </g>
        </g>
        <g transform="matrix(1.49052,0,0,1.49052,-30.7287,-141.425)">
            <g opacity="0.2">
                <g transform="matrix(1,0,0,1,274.876,226.249)">
                    <path d="M0,-0.122C0,-0.122 1.831,-0.624 3.076,0.428C1.351,0.502 0,-0.122 0,-0.122" style="fill-rule:nonzero;"/>
                </g>
            </g>
        </g>
        <g transform="matrix(1.49052,0,0,1.49052,397.638,196.673)">
            <path d="M0,-7.056C0.477,-9.309 -4.414,-12.566 -7.21,-10.868C-9.969,-9.193 -6.066,-5.713 -5.374,-2.549C-4.68,0.614 -8.624,3.561 -8.624,3.561C-8.624,3.561 -7.02,5.51 -3.856,5.381C3.25,2.693 1.127,-6.146 0,-7.056" style="fill:rgb(225,225,225);fill-rule:nonzero;"/>
        </g>
        <g transform="matrix(0.171509,-1.48062,-1.48062,-0.171509,395.29,198.668)">
            <path d="M-4.34,-2.781C-6.351,-1.832 -7.73,-0.035 -8.311,1.704C-9.184,4.319 -6.879,5.788 -4.34,5.197C-2.053,4.663 1.156,2.66 0.928,-0.03C0.703,-2.681 -2.04,-3.867 -4.34,-2.781" style="fill:rgb(255,140,123);fill-rule:nonzero;"/>
        </g>
        <g transform="matrix(0.110245,-1.48644,-1.48644,-0.110245,374.695,194.001)">
            <path d="M-0.796,-0.739C-1.469,-0.744 -2.014,-0.392 -2.015,0.048C-2.015,0.489 -1.469,0.851 -0.796,0.857C-0.123,0.862 0.423,0.51 0.422,0.07C0.422,-0.371 -0.124,-0.732 -0.796,-0.739" style="fill:rgb(26,46,53);fill-rule:nonzero;"/>
        </g>
        <g transform="matrix(0.110314,-1.48643,-1.48643,-0.110314,362.185,193.46)">
            <path d="M-0.795,-0.738C-1.468,-0.745 -2.013,-0.392 -2.014,0.049C-2.014,0.488 -1.468,0.851 -0.795,0.857C-0.122,0.863 0.423,0.511 0.423,0.07C0.423,-0.371 -0.123,-0.732 -0.795,-0.738" style="fill:rgb(26,46,53);fill-rule:nonzero;"/>
        </g>
        <g transform="matrix(1.49052,0,0,1.49052,367.51,203.815)">
            <path d="M0,-6.537C0,-6.537 -2.008,-2.893 -3.916,-1.263C-2.875,0 -0.802,-0.229 -0.802,-0.229L0,-6.537Z" style="fill:rgb(255,85,81);fill-rule:nonzero;"/>
        </g>
        <g transform="matrix(1.49052,0,0,1.49052,377.973,184.926)">
            <path d="M0,2.469C0.066,2.465 0.131,2.445 0.19,2.407C0.373,2.288 0.423,2.043 0.303,1.86C-0.9,0.022 -2.726,-0.007 -2.803,-0.007C-3.022,-0.008 -3.198,0.169 -3.197,0.387C-3.196,0.605 -3.019,0.782 -2.801,0.784C-2.741,0.785 -1.318,0.822 -0.357,2.289C-0.276,2.413 -0.138,2.477 0,2.469" style="fill:rgb(26,46,53);fill-rule:nonzero;"/>
        </g>
        <g transform="matrix(1.49052,0,0,1.49052,359.391,186.336)">
            <path d="M0,2.208C0.126,2.232 0.26,2.194 0.355,2.096C1.562,0.845 2.965,1.091 3.024,1.102C3.238,1.142 3.444,1.002 3.483,0.788C3.522,0.574 3.382,0.367 3.169,0.325C3.091,0.312 1.297,-0.024 -0.214,1.543C-0.366,1.699 -0.36,1.95 -0.203,2.103C-0.145,2.159 -0.074,2.194 0,2.208" style="fill:rgb(26,46,53);fill-rule:nonzero;"/>
        </g>
        <g transform="matrix(1.49052,0,0,1.49052,358.907,225.585)">
            <path d="M0,-13.3C0,-13.3 1.374,-15.323 4.67,-13.3C4.67,-13.3 5.941,-14.649 9.163,-14.479C12.385,-14.31 14.033,-13.3 14.033,-13.3L17.876,-16.266L18.888,-14.697C18.888,-14.697 23.26,-4.155 17.33,-0.595C11.4,2.966 4.023,1.449 1.907,-0.925C-0.208,-3.298 0.846,-9.496 0.846,-9.496C0.846,-9.496 -0.389,-12.172 0,-13.3" style="fill:rgb(225,225,225);fill-rule:nonzero;"/>
        </g>
        <g transform="matrix(1.49052,0,0,1.49052,376.875,210.546)">
            <path d="M0,-0.132C-3.561,1.187 -6.923,-1.319 -6.923,-1.319C-6.923,-1.319 -8.365,0.437 -9.688,0.252" style="fill:none;fill-rule:nonzero;stroke:rgb(26,46,53);stroke-width:0.34px;"/>
        </g>
        <g transform="matrix(-1.48996,-0.0406816,-0.0406816,1.48996,275.755,308.5)">
            <path d="M-6.554,-9.079L2.825,-9.079L-1.311,0.169C-1.311,0.169 -9.233,0.097 -9.371,-4.769L-6.554,-9.079Z" style="fill:rgb(255,140,123);fill-rule:nonzero;"/>
        </g>
        <g transform="matrix(1.49052,0,0,1.49052,265.223,304.387)">
            <path d="M0,-1.84L1.019,2.236C1.383,3.691 2.882,4.554 4.323,4.137L8.372,2.964L4.489,-6.394L1.389,-4.852C0.276,-4.298 -0.301,-3.045 0,-1.84" style="fill:rgb(255,140,123);fill-rule:nonzero;"/>
        </g>
        <g transform="matrix(0.987166,1.11676,1.11676,-0.987166,339.134,268.29)">
            <path d="M-6.296,-4.204L8.438,-4.204L8.892,-14.462L-3.804,-15.385L-6.296,-4.204Z" style="fill:rgb(26,46,53);fill-rule:nonzero;"/>
        </g>
        <g transform="matrix(1.49052,0,0,1.49052,319.475,280.35)">
            <path d="M0,-1.871L8.929,7.098C9.219,7.39 9.688,7.396 9.986,7.111L14.989,2.335C15.288,2.05 15.303,1.577 15.021,1.274L5.564,-8.921C5.243,-9.267 4.686,-9.237 4.404,-8.858L-0.07,-2.856C-0.294,-2.557 -0.265,-2.137 0,-1.871" style="fill:rgb(26,46,53);fill-rule:nonzero;"/>
        </g>
        <g transform="matrix(1.49052,0,0,1.49052,-30.7287,-141.425)">
            <g opacity="0.2">
                <g transform="matrix(1,0,0,1,234.954,282.972)">
                    <path d="M0,-1.871L8.929,7.098C9.219,7.39 9.688,7.396 9.986,7.111L14.989,2.335C15.288,2.05 15.303,1.577 15.021,1.274L5.564,-8.921C5.243,-9.267 4.686,-9.237 4.404,-8.858L-0.07,-2.856C-0.294,-2.557 -0.265,-2.137 0,-1.871" style="fill:white;fill-rule:nonzero;"/>
                </g>
            </g>
        </g>
        <g transform="matrix(1.49052,0,0,1.49052,-30.7287,-141.425)">
            <g opacity="0.2">
                <g transform="matrix(1,0,0,1,302.157,284.011)">
                    <path d="M0,-11.12C0.04,-6.85 -0.1,-2 -0.54,3.41C-6.06,-1.51 -6.71,-14.53 -6.71,-14.53C-4.31,-13.74 -2.04,-12.55 0,-11.12" style="fill-rule:nonzero;"/>
                </g>
            </g>
        </g>
        <g transform="matrix(1.49052,0,0,1.49052,411.499,305.851)">
            <path d="M0,-50.498C8.35,-46.937 29.316,-20.641 25.954,-10.844C22.591,-1.048 10.113,0 8.484,-0.395C6.855,-0.792 3.469,-7.877 13.03,-14.352L0.833,-25.413C0.833,-25.413 -2.709,-32.3 -2.619,-38.63C-2.53,-44.96 0,-50.498 0,-50.498" style="fill:rgb(63,203,115);fill-rule:nonzero;"/>
        </g>
        <g transform="matrix(-1.47465,0.21693,0.21693,1.47465,417.532,310.452)">
            <path d="M-5.986,-9.474L3.393,-9.474L-0.744,-0.226C-0.744,-0.226 -8.665,-0.298 -8.804,-5.164L-5.986,-9.474Z" style="fill:rgb(255,140,123);fill-rule:nonzero;"/>
        </g>
        <g transform="matrix(1.49052,0,0,1.49052,405.054,305.862)">
            <path d="M0,-0.539L1.708,3.3C2.317,4.67 3.942,5.261 5.29,4.602L9.075,2.747L3.636,-5.8L0.848,-3.745C-0.152,-3.009 -0.505,-1.675 0,-0.539" style="fill:rgb(255,140,123);fill-rule:nonzero;"/>
        </g>
        <g transform="matrix(1.49052,0,0,1.49052,407.595,302.783)">
            <path d="M0,116.964L54.414,116.964L54.414,18.839C54.414,8.435 45.979,0 35.575,0L18.838,0C8.434,0 0,8.435 0,18.839L0,116.964Z" style="fill:rgb(26,46,53);fill-rule:nonzero;"/>
        </g>
        <g transform="matrix(1.49052,0,0,1.49052,-30.7287,-141.425)">
            <g opacity="0.6">
                <g transform="matrix(1,0,0,1,294.075,298.022)">
                    <path d="M0,116.964L54.414,116.964L54.414,18.839C54.414,8.435 45.979,0 35.575,0L18.838,0C8.434,0 0,8.435 0,18.839L0,116.964Z" style="fill:white;fill-rule:nonzero;"/>
                </g>
            </g>
        </g>
        <g transform="matrix(1.49052,0,0,1.49052,-30.7287,-141.425)">
            <g opacity="0.4">
                <g transform="matrix(1,0,0,1,294.075,298.022)">
                    <path d="M0,116.964L31.299,116.964L31.299,15.651C31.299,7.007 24.292,0 15.649,0C7.006,0 0,7.007 0,15.651L0,116.964Z" style="fill:white;fill-rule:nonzero;"/>
                </g>
            </g>
        </g>
        <g transform="matrix(1.49052,0,0,1.49052,520.311,477.777)">
            <path d="M0,-80.767L0.305,-67.593L1.692,0L6.27,0L7.648,-67.593L7.953,-80.767L0,-80.767Z" style="fill:rgb(26,46,53);fill-rule:nonzero;"/>
        </g>
        <g transform="matrix(1.49052,0,0,1.49052,-30.7287,-141.425)">
            <g opacity="0.4">
                <g transform="matrix(1,0,0,1,369.696,415.427)">
                    <path d="M0,-80.767L0.305,-67.593L1.692,0L6.27,0L7.648,-67.593L7.953,-80.767L0,-80.767Z" style="fill:white;fill-rule:nonzero;"/>
                </g>
            </g>
        </g>
        <g transform="matrix(1.49052,0,0,1.49052,-30.7287,-141.425)">
            <g opacity="0.2">
                <g transform="matrix(0.0225251,0.999746,0.999746,-0.0225251,380.35,337.301)">
                    <path d="M-2.88,-10.592L10.661,-10.592L10.826,-3.25L-2.701,-2.641L-2.88,-10.592Z" style="fill-rule:nonzero;"/>
                </g>
            </g>
        </g>
        <g transform="matrix(0.0790532,-1.48842,-1.48842,-0.0790532,550.382,429.56)">
            <path d="M-34.481,43.263L45.255,43.263L45.622,36.361L-34.204,38.049L-34.481,43.263Z" style="fill:rgb(26,46,53);fill-rule:nonzero;"/>
        </g>
        <g transform="matrix(1.49052,0,0,1.49052,-30.7287,-141.425)">
            <g opacity="0.4">
                <g transform="matrix(1,0,0,1,350.073,335.507)">
                    <path d="M0,79.709L-5.225,79.709L-1.388,6.515L-1.007,0L5.905,0L5.372,6.515L0,79.709Z" style="fill:white;fill-rule:nonzero;"/>
                </g>
            </g>
        </g>
        <g transform="matrix(1.49052,0,0,1.49052,-30.7287,-141.425)">
            <g opacity="0.2">
                <g transform="matrix(-0.0784983,0.996914,0.996914,0.0784983,355.42,342.792)">
                    <path d="M-7.307,-0.015L-0.517,-0.015L0.014,-6.754L-6.764,-6.907L-7.307,-0.015Z" style="fill-rule:nonzero;"/>
                </g>
            </g>
        </g>
        <g transform="matrix(-0.110514,-1.48642,-1.48642,0.110514,620.055,413.202)">
            <path d="M-40.078,42.415L39.766,42.415L39.253,35.521L-40.465,37.209L-40.078,42.415Z" style="fill:rgb(26,46,53);fill-rule:nonzero;"/>
        </g>
        <g transform="matrix(1.49052,0,0,1.49052,-30.7287,-141.425)">
            <g opacity="0.4">
                <g transform="matrix(1,0,0,1,397.276,335.507)">
                    <path d="M0,79.709L-5.372,6.515L-5.905,0L1.008,0L1.388,6.515L5.226,79.709L0,79.709Z" style="fill:white;fill-rule:nonzero;"/>
                </g>
            </g>
        </g>
        <g transform="matrix(1.49052,0,0,1.49052,-30.7287,-141.425)">
            <g opacity="0.2">
                <g transform="matrix(0.0784983,0.996914,0.996914,-0.0784983,398.106,334.99)">
                    <path d="M-0.014,-6.754L6.776,-6.754L7.307,-0.015L0.529,0.138L-0.014,-6.754Z" style="fill-rule:nonzero;"/>
                </g>
            </g>
        </g>
        <g transform="matrix(1.49052,0,0,1.49052,482.537,362.466)">
            <path d="M0,-4.945L58.642,-4.945C59.581,-4.945 60.343,-4.183 60.343,-3.244L60.343,-1.702C60.343,-0.762 59.581,0 58.642,0L0,0C-0.939,0 -1.701,-0.762 -1.701,-1.702L-1.701,-3.244C-1.701,-4.183 -0.939,-4.945 0,-4.945" style="fill:rgb(26,46,53);fill-rule:nonzero;"/>
        </g>
        <g transform="matrix(1.49052,0,0,1.49052,-30.7287,-141.425)">
            <g opacity="0.6">
                <g transform="matrix(1,0,0,1,344.354,338.064)">
                    <path d="M0,-4.945L58.642,-4.945C59.581,-4.945 60.343,-4.183 60.343,-3.244L60.343,-1.702C60.343,-0.762 59.581,0 58.642,0L0,0C-0.939,0 -1.701,-0.762 -1.701,-1.702L-1.701,-3.244C-1.701,-4.183 -0.939,-4.945 0,-4.945" style="fill:white;fill-rule:nonzero;"/>
                </g>
            </g>
        </g>
        <g transform="matrix(-1.49052,0,0,1.49052,1115,30.654)">
            <rect x="382.614" y="166.881" width="3.453" height="50.789" style="fill:rgb(26,46,53);"/>
        </g>
        <g transform="matrix(-1.49052,0,0,1.49052,513.742,256.217)">
            <path d="M-38.102,31.098L0,31.098L-4.55,0L-33.553,0L-38.102,31.098Z" style="fill:rgb(63,203,115);fill-rule:nonzero;"/>
        </g>
        <g transform="matrix(-1.49052,0,0,1.49052,531.046,355.095)">
            <path d="M-14.883,-2.778L-0,-2.778C1.534,-2.778 2.778,-1.534 2.778,0L-17.661,0C-17.661,-1.534 -16.417,-2.778 -14.883,-2.778" style="fill:rgb(26,46,53);fill-rule:nonzero;"/>
        </g>
        <g transform="matrix(1.49052,0,0,1.49052,-30.7287,-141.425)">
            <g opacity="0.4">
                <g transform="matrix(-1,0,0,1,365.289,266.781)">
                    <path d="M-38.102,31.098L0,31.098L-4.55,0L-33.553,0L-38.102,31.098Z" style="fill:rgb(32,182,87);fill-rule:nonzero;"/>
                </g>
            </g>
        </g>
        <g transform="matrix(-1.49052,0,0,1.49052,502.991,335.968)">
            <path d="M-7.714,12.833L-0,12.833L1.088,0L-8.802,0L-7.714,12.833Z" style="fill:rgb(0,124,255);fill-rule:nonzero;"/>
        </g>
        <g transform="matrix(1.49052,0,0,1.49052,-30.7287,-141.425)">
            <g opacity="0.7">
                <g transform="matrix(1,0,0,1,366.878,333.12)">
                    <path d="M0,-12.83L-0.54,-6.42L-1.08,0L-8.8,0L-9.35,-6.42L-9.89,-12.83L0,-12.83Z" style="fill:white;fill-rule:nonzero;"/>
                </g>
            </g>
        </g>
        <g transform="matrix(1.49052,0,0,1.49052,-30.7287,-141.425)">
            <g opacity="0.7">
                <g transform="matrix(-0.0837372,0.996488,0.996488,0.0837372,364.973,333.581)">
                    <path d="M-7.864,0.436L-1.045,0.436L-0.45,-6.651L-7.172,-7.8L-7.864,0.436Z" style="fill:white;fill-rule:nonzero;"/>
                </g>
            </g>
        </g>
        <g transform="matrix(1.49052,0,0,1.49052,516.953,334.639)">
            <path d="M0,1.435L-11.02,1.435L-11.02,1.212C-11.02,0.543 -10.478,0 -9.809,0L-1.212,0C-0.542,0 0,0.543 0,1.212L0,1.435Z" style="fill:rgb(32,182,87);fill-rule:nonzero;"/>
        </g>
        <g transform="matrix(-1.49052,0,0,1.49052,1048.21,64.6602)">
            <rect x="361.373" y="180.11" width="1.121" height="1.516" style="fill:rgb(32,182,87);"/>
        </g>
    </g>
</svg>
