<?xml version="1.0" encoding="UTF-8" standalone="no"?>
<!DOCTYPE svg PUBLIC "-//W3C//DTD SVG 1.1//EN" "http://www.w3.org/Graphics/SVG/1.1/DTD/svg11.dtd">
<svg width="100%" height="100%" viewBox="0 0 64 64" version="1.1" xmlns="http://www.w3.org/2000/svg" xmlns:xlink="http://www.w3.org/1999/xlink" xml:space="preserve" xmlns:serif="http://www.serif.com/" style="fill-rule:evenodd;clip-rule:evenodd;stroke-linecap:round;stroke-linejoin:round;stroke-miterlimit:1.5;">
    <rect id="Artboard1" x="0" y="0" width="64" height="64" style="fill:none;"/>
    <g id="Artboard11" serif:id="Artboard1">
        <g transform="matrix(0.0818282,0,0,0.0840759,-69.4798,-103.078)">
            <g transform="matrix(1,0,0,1,73.0807,315.532)">
                <path d="M1501.48,1111.23L1501.48,1470.96C1501.48,1556.25 1430.33,1625.49 1342.69,1625.49L991.458,1625.49C903.825,1625.49 832.677,1556.25 832.677,1470.96L832.677,1111.23C832.677,1025.94 903.825,956.693 991.458,956.693L1342.69,956.693C1430.33,956.693 1501.48,1025.94 1501.48,1111.23Z" style="fill:rgb(0,110,50);stroke:black;stroke-opacity:0;stroke-width:12.05px;"/>
            </g>
            <g transform="matrix(1,0,0,1,703.945,223.53)">
                <clipPath id="_clip1">
                    <rect x="319.227" y="1132.76" width="432.003" height="500.669"/>
                </clipPath>
                <g clip-path="url(#_clip1)">
                    <g transform="matrix(2.3583,0,0,2.3583,-1105.08,-1872.45)">
                        <path d="M785.547,1340.32C781.713,1358.74 765.37,1372.6 745.815,1372.6C723.417,1372.6 705.233,1354.42 705.233,1332.02C705.233,1309.62 723.417,1291.44 745.815,1291.44C765.37,1291.44 781.713,1305.3 785.547,1323.72L767.694,1323.72C764.343,1314.9 755.806,1308.62 745.815,1308.62C732.903,1308.62 722.419,1319.11 722.419,1332.02C722.419,1344.93 732.903,1355.41 745.815,1355.41C755.806,1355.41 764.343,1349.14 767.694,1340.32L785.547,1340.32Z" style="fill:rgb(247,247,247);"/>
                    </g>
                    <g transform="matrix(1.13223,0,0,1.13223,-87.7842,-166.853)">
                        <path d="M827.553,1355.75L826.877,1355.75" style="fill:none;"/>
                        <path d="M827.553,1271.71C875.21,1271.71 913.901,1309.37 913.901,1355.75C913.901,1402.13 875.21,1439.79 827.553,1439.79L826.877,1439.79C779.22,1439.79 740.529,1402.13 740.529,1355.75C740.529,1309.37 779.22,1271.71 826.877,1271.71L827.553,1271.71Z" style="fill-opacity:0;"/>
                    </g>
                    <g transform="matrix(1,0,0,1,-60.2872,-3.76795)">
                        <path d="M665.281,1583.47L478.085,1333.47L478.085,1372.04L477.898,1372.04L477.898,1598.59C472.801,1620.7 452.983,1637.2 429.342,1637.2C403.495,1637.2 382.219,1617.48 379.753,1592.27C379.595,1590.66 379.514,1589.02 379.514,1587.37C379.514,1585.71 379.595,1584.08 379.753,1582.46L379.754,1191.27C379.595,1189.65 379.514,1188.01 379.514,1186.36C379.514,1158.86 401.841,1136.53 429.342,1136.53C440.882,1136.53 451.511,1140.46 459.962,1147.06L507.576,1208.8L766.225,1554.22L765.909,1554.46C770.237,1561.84 772.719,1570.44 772.719,1579.61C772.719,1607.11 750.392,1629.43 722.891,1629.43C713.898,1629.43 705.458,1627.05 698.172,1622.87L665.281,1583.47Z" style="fill:rgb(247,247,247);"/>
                    </g>
                </g>
            </g>
        </g>
    </g>
</svg>
